<svg height="495pt" viewBox="0 -38 495.90812 495" width="495pt" xmlns="http://www.w3.org/2000/svg"><path d="m394.472656 102.429688c-9.328125-57.609376-61.332031-98.402344-119.507812-93.738282-58.175782 4.664063-103.019532 53.21875-103.050782 111.578125v.800781c-39.492187-20.671874-87.480468-15.960937-122.195312 11.996094-34.714844 27.957032-49.550781 73.835938-37.769531 116.824219 11.777343 42.992187 47.925781 74.902344 92.042969 81.261719 5.273437.738281 10.59375 1.113281 15.921874 1.117187h252c15.089844.042969 30.042969-2.894531 44-8.640625 47.363282-19.433594 76.398438-67.605468 71.457032-118.5625-4.9375-50.957031-42.683594-92.660156-92.898438-102.636718zm0 0" fill="#57a4ff"/><g fill="#004fac"><path d="m401.386719 95.765625c-12.191407-57.992187-64.890625-98.398437-124.058594-95.128906-59.167969 3.273437-107.089844 49.242187-112.816406 108.226562-42.976563-17.167969-91.996094-8.089843-125.976563 23.328125-33.980468 31.417969-46.867187 79.574219-33.117187 123.765625 13.75 44.1875 51.6875 76.53125 97.496093 83.121094 5.632813.789063 11.3125 1.1875 17 1.191406h252c16.136719.054688 32.121094-3.085937 47.039063-9.238281 49.695313-20.394531 80.617187-70.457031 76.609375-124.023438-4.007812-53.566406-42.035156-98.46875-94.210938-111.242187zm11.460937 220.503906c-12.984375 5.34375-26.894531 8.0625-40.933594 8h-252c-4.949218-.003906-9.890624-.351562-14.792968-1.039062-40.953125-5.917969-74.503906-35.550781-85.433594-75.460938-10.929688-39.910156 2.839844-82.503906 35.066406-108.460937 32.222656-25.957032 76.773438-30.34375 113.4375-11.164063 2.550782 1.183594 5.539063.945313 7.867188-.632812 2.414062-1.617188 3.863281-4.335938 3.855468-7.242188.019532-54.195312 41.660157-99.292969 95.683594-103.625 54.023438-4.332031 102.320313 33.546875 110.980469 87.050781.53125 3.300782 3.0625 5.925782 6.34375 6.574219 46.777344 9.28125 81.941406 48.125 86.53125 95.59375 4.59375 47.46875-22.472656 92.332031-66.605469 110.40625zm0 0"/><path d="m167.914062 356.269531h-16c-4.417968 0-8 3.582031-8 8s3.582032 8 8 8h16c4.417969 0 8-3.582031 8-8s-3.582031-8-8-8zm0 0"/><path d="m255.914062 356.269531h-16c-4.417968 0-8 3.582031-8 8s3.582032 8 8 8h16c4.417969 0 8-3.582031 8-8s-3.582031-8-8-8zm0 0"/><path d="m343.914062 356.269531h-16c-4.417968 0-8 3.582031-8 8s3.582032 8 8 8h16c4.417969 0 8-3.582031 8-8s-3.582031-8-8-8zm0 0"/><path d="m207.914062 380.269531h-16c-4.417968 0-8 3.582031-8 8s3.582032 8 8 8h16c4.417969 0 8-3.582031 8-8s-3.582031-8-8-8zm0 0"/><path d="m303.914062 380.269531h-16c-4.417968 0-8 3.582031-8 8s3.582032 8 8 8h16c4.417969 0 8-3.582031 8-8s-3.582031-8-8-8zm0 0"/><path d="m255.914062 404.269531h-16c-4.417968 0-8 3.582031-8 8s3.582032 8 8 8h16c4.417969 0 8-3.582031 8-8s-3.582031-8-8-8zm0 0"/></g></svg>